  <svg version="1.1" class="logo-svg" xmlns="http://www.w3.org/2000/svg" xmlns:xlink="http://www.w3.org/1999/xlink" x="0px" y="0px" width="158px" height="22.5px" viewBox="0 0 158 22.5" style="enable-background:new 0 0 158 22.5;" xml:space="preserve">
  <style> .st0 { fill: #ffffff; }</style>
  <g>
    <g>
      <path class="st0" d="M4.7,3.3H10c1.6,0,2.8,0.3,3.6,1c1.1,0.7,1.6,1.9,1.6,3.2c0,1.5-0.8,2.6-2,3.3c2.7,0.9,2.8,3.2,2.8,3.9
        c0,1.5-0.6,2.8-1.7,3.6c-1.3,1-2.3,1.1-4.6,1.1h-5V3.3z M8,9.7h1.8c0.5,0,1,0,1.4-0.2c0.6-0.3,0.9-0.8,0.9-1.6
        c0-0.8-0.4-1.3-0.9-1.5c-0.4-0.2-0.9-0.3-1.4-0.3H8V9.7z M8,16.6h2.3c0.4,0,1,0,1.5-0.2c0.7-0.3,1.2-0.8,1.2-1.9
        c0-0.9-0.5-1.5-1.1-1.8c-0.5-0.2-1.1-0.2-1.6-0.2H8V16.6z"></path>
      <path class="st0" d="M17.1,3.3h3.3v16.1h-3.3V3.3z"></path>
      <path class="st0" d="M34.2,8.2c-0.3-0.5-0.7-1-1.2-1.3c-0.8-0.7-1.9-1.1-3.1-1.1c-2.6,0-5.2,2-5.2,5.5c0,3.6,2.7,5.6,5.2,5.6
        c1.3,0,2.4-0.4,3.2-1c0.8-0.6,1.4-1.5,1.7-2.4h-6v-2.6h9.8c0,1.1-0.1,2.7-0.7,4.1c-1.5,3.4-5,4.8-7.9,4.8c-4.8,0-8.5-3.7-8.5-8.4
        C21.4,6.5,25.2,3,30,3c3.6,0,6.9,2.3,7.9,5.3H34.2z"></path>
      <path class="st0" d="M47.1,14.4c0.1,2.2,1.6,2.6,2.3,2.6c1.2,0,2.2-1,2.2-2.1c0-1.4-1.2-1.7-3.4-2.6c-1.2-0.4-4-1.4-4-4.5
        c0-3.1,2.7-4.8,5.3-4.8c2.1,0,5,1.1,5.1,4.7h-3.2c-0.1-0.7-0.4-2-2-2c-1.1,0-2,0.7-2,1.8c0,1.2,0.9,1.5,3.6,2.6
        c2.5,1.1,3.8,2.2,3.8,4.5c0,2.6-1.6,5-5.4,5c-3.7,0-5.6-2.2-5.5-5.3H47.1z"></path>
      <path class="st0" d="M60.8,3.3c2.7,0,3.8,0.4,4.8,1.1c1.2,1,1.8,2.5,1.8,4.1c0,1.6-0.7,3.2-1.7,4.1c-1.1,0.9-2.2,1.3-4.5,1.3h-2
        v5.5h-3.3V3.3H60.8z M59.2,11h1.9c0.7,0,1.5-0.1,2.1-0.4c0.6-0.3,1.1-1,1.1-2c0-1-0.5-1.7-1.1-2c-0.7-0.3-1.4-0.4-2.2-0.4h-1.8V11
        z"></path>
      <path class="st0" d="M68.8,19.4h-3.5l6.5-16.1h2.9l6.4,16.1h-3.6l-1.2-3.2H70L68.8,19.4z M73.1,7.1l-2.3,6.5h4.7L73.1,7.1z"></path>
      <path class="st0" d="M96.2,14c-1,3.3-4.1,5.7-7.9,5.7c-4.9,0-8.5-3.9-8.5-8.4C79.8,7,83.2,3,88.3,3c4.6,0,7.3,3.5,7.9,5.8h-3.4
        c-0.5-1.1-1.9-2.9-4.5-2.9c-3.1,0-5.2,2.6-5.2,5.5c0,2.9,2.1,5.5,5.2,5.5c2.9,0,4.2-2.3,4.5-2.9H96.2z"></path>
      <path class="st0" d="M97.1,3.3h9.1v2.9h-5.8v3.7h5.7v2.9h-5.7v3.9h5.8v2.9h-9.1V3.3z"></path>
      <path class="st0" d="M109.9,14.4c0.1,2.2,1.6,2.6,2.3,2.6c1.2,0,2.2-1,2.2-2.1c0-1.4-1.2-1.7-3.4-2.6c-1.2-0.4-4-1.4-4-4.5
        c0-3.1,2.7-4.8,5.3-4.8c2.1,0,5,1.1,5.1,4.7h-3.2c-0.1-0.7-0.4-2-2-2c-1.1,0-2,0.7-2,1.8c0,1.2,0.9,1.5,3.6,2.6
        c2.5,1.1,3.8,2.2,3.8,4.5c0,2.6-1.6,5-5.4,5c-3.7,0-5.6-2.2-5.5-5.3H109.9z"></path>
      <path class="st0" d="M118.7,19.4V3.3h3.2v6.5h6.2V3.3h3.3v16.1h-3.3v-6.8H122v6.8H118.7z"></path>
      <path class="st0" d="M133.3,3.3h3.2v16.1h-3.2V3.3z"></path>
      <path class="st0" d="M143.2,3.3c2.7,0,3.8,0.4,4.8,1.1c1.2,1,1.8,2.5,1.8,4.1c0,1.6-0.7,3.2-1.7,4.1c-1.1,0.9-2.2,1.3-4.5,1.3h-2
        v5.5h-3.2V3.3H143.2z M141.6,11h1.9c0.7,0,1.5-0.1,2.1-0.4c0.6-0.3,1.1-1,1.1-2c0-1-0.5-1.7-1.1-2c-0.7-0.3-1.4-0.4-2.2-0.4h-1.8
        V11z"></path>
    </g>
    <g>
      <path class="st0" d="M153.2,3c0.8,0,1.5,0.7,1.5,1.5c0,0.8-0.7,1.5-1.5,1.5c-0.8,0-1.5-0.7-1.5-1.5C151.7,3.7,152.3,3,153.2,3
        L153.2,3z M153.2,3.3c-0.7,0-1.2,0.6-1.2,1.2c0,0.7,0.5,1.2,1.2,1.2c0.7,0,1.2-0.5,1.2-1.2C154.4,3.8,153.9,3.3,153.2,3.3
        L153.2,3.3z M153.3,3.6c0.3,0,0.6,0.1,0.6,0.5c0,0.1,0,0.3-0.3,0.4c0.1,0.1,0.2,0.1,0.2,0.4c0,0.3,0,0.3,0.1,0.4h-0.4
        c0-0.1,0-0.4-0.1-0.4c0-0.1,0-0.2-0.3-0.2H153v0.7h-0.4V3.6H153.3z M153,3.9v0.5h0.2c0.1,0,0.3,0,0.3-0.3c0-0.2-0.2-0.2-0.3-0.2
        H153z"></path>
    </g>
  </g>
  </svg>

