<?xml version="1.0" encoding="utf-8"?>
<!-- Generator: Adobe Illustrator 20.1.0, SVG Export Plug-In . SVG Version: 6.00 Build 0)  -->
<!DOCTYPE svg PUBLIC "-//W3C//DTD SVG 1.1//EN" "http://www.w3.org/Graphics/SVG/1.1/DTD/svg11.dtd">
<svg version="1.1" id="Layer_1" xmlns="http://www.w3.org/2000/svg" xmlns:xlink="http://www.w3.org/1999/xlink" x="0px" y="0px"
	 viewBox="0 0 161.1 27.2" style="enable-background:new 0 0 161.1 27.2;" xml:space="preserve">
<style type="text/css">
	.st0{fill:#FFFFFF;}
</style>
<title>Untitled-2</title>
<path class="st0" d="M4.8,22.4V4.8h7.4c1.6-0.1,3.1,0.3,4.3,1.2c0.8,0.8,1.3,1.9,1.2,3.1c0.1,1.6-0.8,3.1-2.2,3.8
	c0.8,0.2,1.5,0.7,2.1,1.2c0.7,0.9,1.1,2,1,3.1c0,3.5-2.2,5.2-6.7,5.2L4.8,22.4z M7.1,12.1h4.4c2.5,0,3.7-0.9,3.7-2.7
	c0.1-0.8-0.3-1.7-1-2.2c-0.8-0.4-1.6-0.6-2.5-0.5H7.1V12.1z M7.1,20.4h4.6c1.1,0.1,2.2-0.2,3.1-0.7c0.8-0.6,1.3-1.5,1.2-2.5
	c0.1-1.1-0.5-2.2-1.5-2.8c-0.8-0.3-1.7-0.5-2.6-0.5H7.1V20.4z"/>
<path class="st0" d="M21.2,22.4V4.8h3.6l5.2,15.1l5.4-15.1H39v17.7h-2.3V7.1l-5.5,15.3h-2.4L23.5,7.1v15.3H21.2z"/>
<path class="st0" d="M45,22.4L40.7,4.8h2.5L46.7,20l3.8-15.2h2.6L56.8,20l3.7-15.2H63l-4.6,17.7h-2.9L51.8,7.8l-3.9,14.6H45z"/>
<path class="st0" d="M80.1,9.8l-3.6,0.9c-0.2-0.8-0.7-1.6-1.3-2.2c-1.9-1.5-4.6-1.2-6.1,0.7c0,0,0,0-0.1,0.1c-0.8,1.4-1.3,3-1.2,4.6
	c-0.1,1.6,0.3,3.1,1.2,4.4c0.8,1,2.1,1.6,3.4,1.5c1,0,2-0.2,2.8-0.8c0.7-0.5,1.2-1.3,1.2-2.2v-0.8h-2.8v-2.8h6.6v9.3h-2.4l-0.4-1.8
	C76,22.2,74,23,72,22.8c-1.9,0.1-3.8-0.6-5.3-1.8c-1.8-1.6-2.7-4-2.7-7.2c-0.1-2.5,0.7-5,2.2-6.9c1.6-1.7,4-2.7,6.3-2.5
	c2.7,0,4.6,0.7,5.9,2.2C79.3,7.5,79.8,8.6,80.1,9.8z"/>
<path class="st0" d="M83.1,22.4V4.8h13.1v3.1h-9.2v4h8.7V15h-8.7v4.3h9.7v3.1L83.1,22.4z"/>
<path class="st0" d="M99.1,22.4V4.8h3.8l7.3,11.9V4.8h3.6v17.7h-3.8l-7.3-11.9v11.9H99.1z"/>
<path class="st0" d="M117.2,22.4V4.8h3.8v17.7H117.2z"/>
<path class="st0" d="M124.3,4.8h3.8v11c0,2.6,1.2,3.9,3.6,3.9s3.6-1.3,3.6-3.9v-11h3.8v10.8c0.1,2-0.6,3.9-1.9,5.4
	c-1.5,1.4-3.5,2-5.5,1.9c-2.1,0.2-4.2-0.6-5.7-2.1c-1.2-1.5-1.9-3.3-1.8-5.2L124.3,4.8z"/>
<path class="st0" d="M141.3,17.4l3.7-0.9c0.2,0.8,0.5,1.6,1.1,2.3c0.9,0.7,2,1.1,3.2,1c2.3,0,3.4-0.7,3.4-2.2c0-0.6-0.2-1.1-0.7-1.5
	c-0.6-0.4-1.4-0.7-2.1-0.8l-2.1-0.3c-1.5-0.2-2.9-0.7-4.1-1.5c-1.2-0.9-1.8-2.3-1.8-3.8c-0.1-1.6,0.7-3.1,2.1-4
	c1.5-0.9,3.2-1.4,5-1.3c1.9-0.1,3.8,0.4,5.4,1.5c1,0.9,1.8,2,2.1,3.3l-3.5,1.1c-0.2-0.8-0.7-1.5-1.3-2.1c-0.8-0.6-1.8-0.9-2.8-0.8
	c-0.8,0-1.6,0.1-2.3,0.5c-0.6,0.3-0.9,0.9-0.9,1.6c0,0.5,0.2,1,0.5,1.3c0.7,0.5,1.5,0.8,2.3,0.9l3,0.5c1.4,0.2,2.8,0.7,3.8,1.6
	c0.9,1,1.4,2.3,1.3,3.6c0.1,1.5-0.6,3-1.8,4c-1.6,1.1-3.6,1.7-5.6,1.5c-1.8,0.1-3.6-0.3-5.2-1.2C142.7,20.7,141.6,19.1,141.3,17.4z"
	/>
</svg>
