<?xml version="1.0" encoding="utf-8"?>
<!-- Generator: Adobe Illustrator 21.0.0, SVG Export Plug-In . SVG Version: 6.00 Build 0)  -->
<!DOCTYPE svg PUBLIC "-//W3C//DTD SVG 1.1//EN" "http://www.w3.org/Graphics/SVG/1.1/DTD/svg11.dtd">
<svg version="1.1" id="Layer_1" xmlns="http://www.w3.org/2000/svg" xmlns:xlink="http://www.w3.org/1999/xlink" x="0px" y="0px"
	 viewBox="0 0 385 245" style="enable-background:new 0 0 385 245;" xml:space="preserve">
<style type="text/css">
	.st0{fill:#FFFFFF;}
</style>
<g>
	<g>
		<path class="st0" d="M86,144.3L62.9,93.6l-14.1,19.6v31.1H10V10h38.8v55.4L86,10h37L89.1,59.1l42.1,85.2H86z"/>
		<path class="st0" d="M240.3,144.3H139.4V10h100.8v30.9h-60.5v19.6h49v30h-49v21.7h60.5V144.3z"/>
		<path class="st0" d="M339.3,144.3l-38.6-62.9l-11.9-24.3l-0.4,0.4l0.4,1.6c2,8.6,2.7,13.3,2.7,22.5v62.7h-33.5V10h39l45,75
			l0.4-0.4l-2.9-37.2V10H373v134.3H339.3z"/>
	</g>
	<g>
		<path class="st0" d="M10,159.5h37.4c5.8,0,11.7,0.4,16.5,3.9c5.1,3.7,8.1,9.9,8.1,16.2c0,8-5.1,14.8-12.9,16.6v0.2
			c8.8,1.6,14.8,8.3,14.8,17.4c0,6.6-2.3,13.9-7.8,17.9C60.2,235.9,52,236,45,236H10V159.5z M41,188.8c2.2,0,4.9,0.1,6.6-1.5
			c1.5-1.3,2.2-3.2,2.2-5c0-5.7-4.7-6.5-9.2-6.5h-9.2v12.9H41z M41.7,219c2.3,0,4.9,0.1,6.8-1.5c1.7-1.2,2.8-3.2,2.8-5.4
			c0-2.6-1.5-4.9-3.7-6c-2-1-4.7-1-6.8-1h-9.3V219H41.7z"/>
		<path class="st0" d="M145.4,208.7c0,8.9-1,16.1-8.4,22c-6.6,5.1-14.6,6.5-22.7,6.5c-7,0-16.2-1.6-22.1-5.5
			c-8.1-5.4-9.7-12.6-9.7-21.8v-50.4h23.9v47.8c0,2.6-0.1,6,1.5,8.4c1.8,2.5,5.4,3.5,8.4,3.5c2.7,0,6-0.8,8-2.6
			c3-2.6,2.7-6.6,2.7-10.2v-46.9h18.4V208.7z"/>
		<path class="st0" d="M180.7,236H157v-76.6h38.9c6.7,0,14.1,0.9,19.8,4.7c6.4,4,9.4,10.8,9.4,18.3c0,10-4.5,16.1-13.5,20.2
			l13.8,33.4h-26.1l-11.2-29.2h-7.4V236z M180.7,190.4h8.6c5.1,0,11.3-0.8,11.3-7.4c0-2.6-1.3-5-3.7-6.2c-2-1-4.5-1-6.7-1h-9.5
			V190.4z"/>
		<path class="st0" d="M279.9,236l-22-35.8l-6.8-13.8l-0.2,0.2l0.2,0.9c1.1,4.9,1.6,7.6,1.6,12.8V236h-19.1v-76.6h22.2l25.7,42.7
			l0.2-0.2l-1.7-21.2v-21.3h19.1V236H279.9z"/>
		<path class="st0" d="M328.4,209.9c2,6.8,7.1,9.3,13.9,9.3c3,0,9-0.4,9-4.7c0-4.7-5.9-5.6-9.4-6.2c-14.4-2.8-31.5-6.7-31.5-24.9
			c0-7.5,3.7-14.8,9.8-19.2c6.2-4.4,14.4-5.8,22-5.8c13.3,0,26.1,5.5,30.8,18.7l-19.4,5.9c-2.2-5.7-6.5-7.7-12.4-7.7
			c-3.1,0-7.6,0.9-7.6,4.9c0,4,5.6,4.8,8.5,5.5c7.3,1.5,15,2.7,21.6,6.1c7.5,4,11.4,11.2,11.4,19.5c0,18.4-18.3,25.8-34.1,25.8
			c-16.1,0-30.4-6.7-34.5-23.3L328.4,209.9z"/>
	</g>
</g>
</svg>
