<svg id="Layer_1" data-name="Layer 1" xmlns="http://www.w3.org/2000/svg" viewBox="0 0 122.67 27.17"><defs><style>.cls-1{fill:#fff;}</style></defs><title>clientlogo_chobani_w</title><path class="cls-1" d="M47.81,5.13C48.2,5.2,48.6,5.25,49,5.34a8.62,8.62,0,0,1,6.61,7,8.42,8.42,0,0,1-2.36,7.48,8.21,8.21,0,0,1-5.06,2.5,8.62,8.62,0,1,1-1.9-17.14l0.09,0h1.43Zm-0.69,2.4a6.22,6.22,0,1,0,6.23,6.33A6.21,6.21,0,0,0,47.12,7.53Z"/><path class="cls-1" d="M14.69,5.13c0.33,0.05.66,0.1,1,.16a7.75,7.75,0,0,1,4,2.07l0.11,0.12a0.21,0.21,0,0,1,0,0L18.16,9.23a5.85,5.85,0,0,0-4.87-1.66A6.23,6.23,0,0,0,9.48,18a6.16,6.16,0,0,0,8.72.23L19.88,20a1.34,1.34,0,0,0-.22.13A8.2,8.2,0,0,1,15,22.3,8.39,8.39,0,0,1,8,20a8.37,8.37,0,0,1-2.69-5.43,0.81,0.81,0,0,0,0-.13V13l0.12-.74a8.59,8.59,0,0,1,6.63-7c0.38-.08.78-0.13,1.16-0.2h1.48Z"/><path class="cls-1" d="M59.2,15H57.4v-2.4h1.79V5.37h9a4.78,4.78,0,0,1,3.09,8.39l0.57,0.67a4.64,4.64,0,0,1-.23,6.21,4.82,4.82,0,0,1-3.59,1.51H59.2V15Zm2.43-7.2v4.79h6.55a2.39,2.39,0,0,0,0-4.79H61.63Zm0,12h6.5l0.31,0A2.39,2.39,0,0,0,68.24,15H61.62v4.78Z"/><path class="cls-1" d="M105.32,5.38h2.43V22.14l-12-10.77V22.12h-2.4V5.36l11.94,10.76V5.38Z"/><path class="cls-1" d="M24.78,12.54h9V5.39h2.41V22.13h-2.4V15h-9v7.16H22.36V14.95H20.57V12.56h1.78V5.38h2.43v7.15Z"/><path class="cls-1" d="M91.23,22.14H88.7A0.3,0.3,0,0,1,88.51,22c-0.69-1.37-1.39-2.74-2-4.12a0.76,0.76,0,0,0-.83-0.52c-2,0-3.95,0-5.92,0a0.28,0.28,0,0,0-.29.18L77.19,22a0.26,0.26,0,0,1-.27.18H74.44l2.38-4.79H75.66v-2.4h2.19a0.29,0.29,0,0,0,.31-0.19L82.72,5.6l0.12-.25ZM80.63,14.93h4.42l-2.21-4.51Z"/><path class="cls-1" d="M111.31,5.37h2.37V22.13h-2.37V5.37Z"/><path class="cls-1" d="M116.36,5.26a1.26,1.26,0,1,1-1.26,1.27A1.27,1.27,0,0,1,116.36,5.26Zm1,1.27a1,1,0,0,0-1-1,1,1,0,0,0-1,1,1,1,0,0,0,1,1A1,1,0,0,0,117.38,6.53Z"/><path class="cls-1" d="M116.7,6.63l0.23,0.58c-0.18.06-.3,0-0.36-0.15s-0.06-.14-0.08-0.21a0.21,0.21,0,0,0-.32-0.16V7.22H115.9V5.81h0.57a0.43,0.43,0,0,1,.46.3A0.42,0.42,0,0,1,116.7,6.63Zm-0.52-.14c0.17-.06.31-0.11,0.44-0.17a0.2,0.2,0,0,0,0-.16c-0.13-.05-0.28-0.08-0.44-0.13V6.49Z"/></svg>