<?xml version="1.0" encoding="utf-8"?>
<!-- Generator: Adobe Illustrator 19.2.1, SVG Export Plug-In . SVG Version: 6.00 Build 0)  -->
<svg version="1.1" id="Layer_1" xmlns="http://www.w3.org/2000/svg" xmlns:xlink="http://www.w3.org/1999/xlink" x="0px" y="0px"
	 viewBox="0 0 93.8 30.8" style="enable-background:new 0 0 93.8 30.8;" xml:space="preserve">
<style type="text/css">
	.st0{fill:#FFFFFF;}
</style>
<g>
	<g>
		<path class="st0" d="M44.4,0c0.4,0,0.8,0.1,1.1,0.1c1.7,0.3,3.2,0.9,4.3,2.3c0.8,1,1.2,2.2,1.3,3.4c0.1,0.8,0,1.5-0.2,2.3
			c-0.3,1.2-1,2.2-2.1,2.9c-0.4,0.3-0.8,0.5-1.2,0.7c-0.1,0-0.1,0.1-0.2,0.1c0.1,0,0.1,0.1,0.2,0.1c1.8,0.5,2.9,1.7,3.5,3.5
			C52,18,51.3,21.2,49,23c-1.2,1-2.6,1.5-4.2,1.5c-3.5,0-6.9,0-10.4,0c-0.1,0-0.1,0-0.2,0c0-0.1,0-0.2,0-0.3c0-8,0-16,0-24
			c0-0.1,0-0.2,0-0.3C37.7,0,41,0,44.4,0z M38,13.7c0,0.1,0,0.2,0,0.2c0,2.3,0,4.6,0,7c0,0.2,0.1,0.2,0.2,0.2c0.7,0,1.5,0,2.2,0
			c1.3,0,2.6,0,3.9,0c0.8,0,1.6-0.3,2.2-0.8c1-0.8,1.3-1.9,1.3-3.1c-0.1-1.3-0.7-2.4-1.9-3c-0.6-0.3-1.3-0.4-2.1-0.4
			c-1.8,0-3.7,0-5.5,0C38.2,13.7,38.1,13.7,38,13.7z M38,3.3c0,2.4,0,4.7,0,7c0.1,0,0.2,0,0.3,0c1.6,0,3.3,0,4.9,0
			c0.3,0,0.6,0,0.9,0c1.9-0.2,3.1-1.4,3.2-3.2c0.1-1.4-0.5-2.8-2.1-3.5c-0.6-0.2-1.1-0.3-1.7-0.3c-1.8,0-3.6,0-5.4,0
			C38.2,3.3,38.1,3.3,38,3.3z"/>
		<path class="st0" d="M57,0c0,1.4,0,2.7,0,4.1c0,5.2,0,10.4,0,15.6c0,0.1,0,0.2,0,0.2c0,0.9,0.4,1.3,1.3,1.3c0.4,0,0.8,0,1.2,0
			c0,1.1,0,2.2,0,3.3c-0.7,0-1.4,0-2.1,0c-0.5,0-0.9-0.1-1.4-0.2c-1.4-0.4-2.2-1.4-2.5-2.9c-0.1-0.4-0.1-0.8-0.1-1.3
			c0-6.6,0-13.2,0-19.9c0-0.1,0-0.2,0-0.3C54.7,0,55.9,0,57,0z"/>
		<path class="st0" d="M6.5,0c0,1.2,0,2.3,0,3.5c-0.1,0-0.2,0-0.2,0c-1,0-2,0-3,0C3.1,3.5,3,3.5,3,3.3C3,2.2,3,1.1,3,0
			C4.1,0,5.3,0,6.5,0z"/>
		<path class="st0" d="M80.5,17.1c-0.2,1.9,1.1,3.8,3,4.2c1.8,0.4,3.4-0.2,4.8-1.4c0,0,0.1-0.1,0.1-0.1c0,0,0,0,0.1,0
			c0.8,0.7,1.7,1.4,2.5,2.1c-0.7,0.9-1.6,1.5-2.6,2c-1.5,0.7-3.1,0.9-4.7,0.7c-1.2-0.1-2.3-0.4-3.4-1.1c-1.5-0.9-2.4-2.3-2.9-4
			c-0.5-1.6-0.6-3.3-0.5-5c0.1-1.5,0.4-2.9,1.1-4.2c1.2-2.2,3.1-3.4,5.6-3.6c2.2-0.1,4.1,0.5,5.7,2.1c1.1,1.1,1.8,2.5,1.9,4.1
			c0.1,1.3,0.1,2.6,0.1,4c0,0,0,0,0,0.1C87.7,17.1,84.1,17.1,80.5,17.1z M80.5,14.3c2.5,0,4.9,0,7.4,0c0-1.9-1-4.1-3.8-4.1
			C81.9,10.2,80.2,12.1,80.5,14.3z"/>
		<path class="st0" d="M23.2,17.2c-3.7,0-7.3,0-10.9,0c0,0.8,0.1,1.5,0.4,2.1c0.6,1.2,1.5,1.9,2.9,2.1c1.8,0.3,3.3-0.3,4.6-1.4
			c0.1,0,0.1-0.1,0.2-0.2c0.8,0.7,1.7,1.4,2.5,2.2c-0.4,0.5-0.9,1-1.5,1.3c-1.5,1.1-3.2,1.5-5,1.5c-1.4,0-2.7-0.3-3.9-0.9
			c-1.5-0.8-2.5-2.1-3.1-3.7c-0.7-1.8-0.7-3.7-0.6-5.5c0.1-1.4,0.4-2.8,1.1-4.1c1.2-2.2,3.1-3.5,5.6-3.6c2.2-0.1,4.1,0.5,5.7,2.1
			c1.1,1.1,1.8,2.5,1.9,4.1C23.2,14.4,23.2,15.8,23.2,17.2z M19.7,14.3c-0.1-1.6-0.5-3-2-3.7c-1.4-0.7-2.8-0.6-4,0.4
			c-1,0.8-1.3,2-1.4,3.3C14.8,14.3,17.2,14.3,19.7,14.3z"/>
		<path class="st0" d="M71.5,7.1c1.2,0,2.3,0,3.5,0c0,5.8,0,11.6,0,17.5c-1.1,0-2.3,0-3.5,0c0-0.6,0-1.2,0-1.9
			c-0.1,0.1-0.2,0.1-0.2,0.2c-1.6,1.8-3.6,2.3-5.8,1.7c-2.3-0.6-3.7-2.1-4.3-4.4c-0.1-0.5-0.2-1.1-0.2-1.6c0-3.7,0-7.5,0-11.2
			c0-0.1,0-0.2,0-0.3c1.2,0,2.3,0,3.5,0c0,0.1,0,0.2,0,0.3c0,3.4,0,6.8,0,10.2c0,1.1,0.3,2.1,1.2,2.8c1.1,0.9,2.3,1,3.6,0.6
			c1.2-0.4,1.9-1.4,2.1-2.6c0.1-0.3,0.1-0.7,0.1-1.1c0-3.3,0-6.6,0-10C71.5,7.3,71.5,7.2,71.5,7.1z"/>
		<path class="st0" d="M26,1.8c1.2,0,2.3,0,3.5,0c0,1.8,0,3.5,0,5.3c0.9,0,1.7,0,2.5,0c0,0.9,0,1.8,0,2.7c-0.8,0-1.7,0-2.5,0
			c0,0.1,0,0.2,0,0.3c0,3.3,0,6.6,0,9.9c0,0.1,0,0.1,0,0.2c0,0.8,0.4,1.1,1.2,1.1c0.4,0,0.9,0,1.4,0c0,1.1,0,2.2,0,3.3
			c0,0,0,0-0.1,0c-0.8,0-1.6,0-2.4,0c-1.9-0.1-3.3-1.6-3.5-3.4c0-0.3-0.1-0.7-0.1-1c0-3.3,0-6.7,0-10c0-0.3,0-0.3-0.3-0.3
			c-0.5,0-0.9,0-1.4,0c0-0.9,0-1.8,0-2.7c0.6,0,1.1,0,1.7,0C26,5.3,26,3.6,26,1.8z"/>
		<path class="st0" d="M0,30.8c0-1.1,0-2.2,0-3.3c0.1,0,0.2,0,0.3,0c0.4,0,0.9,0,1.3-0.1c0.8-0.1,1.3-0.7,1.3-1.5c0-0.2,0-0.4,0-0.6
			c0-6,0-12,0-17.9c0-0.1,0-0.2,0-0.4c1.2,0,2.3,0,3.5,0c0,0.1,0,0.2,0,0.2c0,6.2,0,12.4,0,18.5c0,1.5-0.5,2.8-1.7,3.8
			c-0.9,0.7-1.9,1.1-3.1,1.1C1.1,30.9,0.6,30.8,0,30.8z"/>
	</g>
	<path class="st0" d="M93.4,7.9c-0.3-0.3-0.6-0.4-0.9-0.4c-0.4,0-0.7,0.1-0.9,0.4c-0.3,0.3-0.4,0.6-0.4,0.9c0,0.4,0.1,0.7,0.4,0.9
		c0.3,0.3,0.6,0.4,0.9,0.4s0.7-0.1,0.9-0.4c0.3-0.3,0.4-0.6,0.4-0.9C93.8,8.5,93.6,8.2,93.4,7.9z M93.2,9.7C93,9.9,92.7,10,92.4,10
		c-0.3,0-0.6-0.1-0.8-0.3c-0.2-0.2-0.3-0.5-0.3-0.8c0-0.3,0.1-0.6,0.3-0.8c0.2-0.2,0.5-0.3,0.8-0.3c0.3,0,0.6,0.1,0.8,0.3
		c0.2,0.2,0.3,0.5,0.3,0.8C93.6,9.2,93.5,9.5,93.2,9.7z"/>
	<path class="st0" d="M93,9.6C93,9.6,93,9.5,93,9.6c0-0.1,0-0.1,0-0.2V9.3c0-0.1,0-0.1-0.1-0.2c-0.1-0.1-0.1-0.1-0.3-0.1
		c0.1,0,0.2,0,0.2-0.1C93,8.8,93,8.7,93,8.5c0-0.2-0.1-0.3-0.2-0.4c-0.1,0-0.2-0.1-0.4-0.1h-0.5v1.5h0.3V9h0.2c0.1,0,0.2,0,0.3,0
		c0.1,0.1,0.1,0.2,0.1,0.3v0.1l0,0c0,0,0,0,0,0l0,0L93,9.6L93,9.6L93,9.6z M92.6,8.8c-0.1,0-0.1,0-0.2,0h-0.2V8.3h0.2
		c0.1,0,0.2,0,0.3,0.1c0.1,0,0.1,0.1,0.1,0.2C92.8,8.7,92.7,8.8,92.6,8.8z"/>
</g>
</svg>
