<svg id="Layer_1" data-name="Layer 1" xmlns="http://www.w3.org/2000/svg" viewBox="0 0 501.29 209.08"><defs><style>.cls-1{fill:#fff;}</style></defs><title>clientlogo_youtube_w</title><path class="cls-1" d="M382.69,84.23c-3,0-6,1.42-9,4.4v60.91c3,3,6,4.46,9,4.46,5.22,0,7.88-4.46,7.88-13.48V97.87c0-9-2.66-13.64-7.88-13.64"/><path class="cls-1" d="M448.88,84.23q-9.07,0-9.07,13.86v9.25h18.1V98.09c0-9.24-3-13.86-9-13.86"/><path class="cls-1" d="M498.31,45.1s-2.92-20.49-11.87-29.51C475.08,3.76,462.35,3.7,456.51,3,414.73,0,352,0,352,0h-0.13S289.24,0,247.45,3c-5.84.69-18.56,0.75-29.92,12.59-9,9-11.87,29.51-11.87,29.51a447.57,447.57,0,0,0-3,48.11v22.55a447.58,447.58,0,0,0,3,48.11s2.91,20.48,11.87,29.51c11.36,11.84,26.28,11.47,32.93,12.71,23.89,2.28,101.53,3,101.53,3s62.75-.09,104.53-3.1c5.84-.69,18.57-0.75,29.92-12.59,9-9,11.87-29.51,11.87-29.51a448.18,448.18,0,0,0,3-48.11V93.22a448.16,448.16,0,0,0-3-48.11m-229.81,124H248.35V53.85H227V35h63.13V53.85H268.49V169.08Zm71.39,0H321.77v-10.9c-7.2,8.26-14,12.28-20.69,12.28-5.84,0-9.85-2.37-11.67-7.43-1-3-1.6-7.81-1.6-14.86v-79h18.1v73.57a55.11,55.11,0,0,0,.17,7c0.44,2.81,1.82,4.24,4.24,4.24,3.64,0,7.43-2.8,11.45-8.47V69.15h18.11v99.93Zm68.79-30c0,9.24-.62,15.9-1.83,20.14-2.42,7.43-7.26,11.23-14.47,11.23-6.44,0-12.67-3.58-18.71-11.06v9.69h-18.1V35h18.1v43.8c5.85-7.2,12.06-10.83,18.71-10.83,7.21,0,12.06,3.79,14.47,11.28,1.21,4,1.83,10.63,1.83,20.09v39.79ZM476,122.42H439.8v17.72c0,9.25,3,13.87,9.24,13.87,4.46,0,7.05-2.42,8.09-7.26a114.87,114.87,0,0,0,.4-12.27H476v2.64c0,5.83-.22,9.85-0.38,11.67a25.78,25.78,0,0,1-4.23,10.85c-5,7.26-12.44,10.83-21.9,10.83s-16.68-3.41-21.91-10.24c-3.85-5-5.82-12.88-5.82-23.5v-35c0-10.68,1.75-18.49,5.6-23.55,5.24-6.84,12.45-10.24,21.69-10.24,9.08,0,16.29,3.4,21.36,10.24C474.2,83.23,476,91,476,101.73v20.69Z"/><path class="cls-1" d="M45.7,114.46v54.88H25.41V114.46c-1.84-9.72-5.9-24-12.4-42.87C8.73,59,4.27,46.4,0,33.83H21.35L35.76,87,49.6,33.83H70.11Zm69,45.94q-7.59,10.33-21.35,10.34c-9.11,0-16.24-3.45-21.3-10.34-3.89-5.05-5.73-13-5.73-23.75V101.28c0-10.79,1.84-18.69,5.73-23.79,5.05-6.91,12.18-10.35,21.3-10.35s16.29,3.44,21.35,10.35c3.83,5.1,5.68,13,5.68,23.79v35.37c0,10.73-1.85,18.69-5.68,23.75M102,97.61c0-9.34-2.83-14-8.73-14s-8.73,4.66-8.73,14v42.48c0,9.34,2.83,14,8.73,14s8.73-4.67,8.73-14V97.61Zm66.67,71.73v-11c-7.28,8.35-14.23,12.41-20.91,12.41-5.89,0-10-2.39-11.78-7.5-1-3.06-1.62-7.89-1.62-15V68.36h18.24v74.35c0,4.29,0,6.52.22,7.11,0.4,2.83,1.84,4.28,4.3,4.28,3.66,0,7.5-2.83,11.55-8.56V68.36H187v101h-18.3Z"/></svg>