<svg id="Layer_1" data-name="Layer 1" xmlns="http://www.w3.org/2000/svg" viewBox="0 0 93.4 57.2"><defs><style>.cls-1{fill:#fff;stroke:#fff;stroke-miterlimit:10;stroke-width:0.5px;}</style></defs><title>clientlogo_bostonballet_w2</title><path class="cls-1" d="M92.8,9.76h0a0.27,0.27,0,0,0-.33.22V27.13L81.66,9.87a0.27,0.27,0,0,0-.33-0.22H81.11a0.35,0.35,0,0,0-.33.33V22.54h-3.5a8.9,8.9,0,0,0,.66-3.39,9.83,9.83,0,0,0-19.66,0A9.91,9.91,0,0,0,63,27.56V42a0.29,0.29,0,0,0,.33.33H73.47A0.29,0.29,0,0,0,73.79,42V41.43a0.29,0.29,0,0,0-.33-0.33H64.29V32.48h7.43A0.29,0.29,0,0,0,72,32.15V31.6a0.29,0.29,0,0,0-.33-0.33H64.29V28a9.36,9.36,0,0,0,3.93.76,9.8,9.8,0,0,0,8.63-5.13H82V41.76a0.29,0.29,0,0,0,.33.33h0.55a0.29,0.29,0,0,0,.33-0.33v-18h5.13a0.29,0.29,0,0,0,.33-0.33V22.87a0.29,0.29,0,0,0-.33-0.33H81.55V11L92.36,28.22a0.37,0.37,0,0,0,.33.22H92.8a0.29,0.29,0,0,0,.33-0.33V10a0.58,0.58,0,0,0-.33-0.22M76.63,22.54h0a9.81,9.81,0,0,1-2,3.06,9.11,9.11,0,0,1-6.44,2.73,9.42,9.42,0,0,1-3.93-.87V23.74h9.18a0.29,0.29,0,0,0,.33-0.33V22.87a0.29,0.29,0,0,0-.33-0.33h-10a0.29,0.29,0,0,0-.33.33v3.82a6.34,6.34,0,0,1-1.31-1.09A9.11,9.11,0,1,1,77.4,19.15a12.62,12.62,0,0,1-.76,3.39M34.47,19a9.83,9.83,0,1,0-12.89,9.28l-3.17,7.32a9.07,9.07,0,0,0-5.35-4.7,4.76,4.76,0,0,0,2-3.82,4.59,4.59,0,0,0-2.18-3.93V22.87a5.63,5.63,0,0,0-4.48-5.57A4.05,4.05,0,0,0,6.51,9.65H1a0.23,0.23,0,0,0-.22.22V28.33a0.23,0.23,0,0,0,.22.22H4.87V41.33a0.29,0.29,0,0,0,.33.33H5.74a0.29,0.29,0,0,0,.33-0.33V31.71h4.37a7.42,7.42,0,0,1,5.35,2.18A7.61,7.61,0,0,1,18,39.25a7.46,7.46,0,0,1-7.43,7.54,0.29,0.29,0,0,0-.33.33v0.55a0.29,0.29,0,0,0,.33.33h0a8.93,8.93,0,0,0,8.74-8.85,12,12,0,0,0-.22-2l1-2.4h9.18l2.95,6.88a0.57,0.57,0,0,0,.44.22h0.55c0.11,0,.22,0,0.22-0.11a0.2,0.2,0,0,0,0-.33L27.59,28.11A9.19,9.19,0,0,0,34.47,19M1.37,10.19H6.51a3.5,3.5,0,1,1,0,7H1.37v-7ZM5.2,22.54a0.29,0.29,0,0,0-.33.33V28H1.37V17.73H7.16a5.13,5.13,0,0,1,5.13,5.13h0a5.15,5.15,0,0,0-1.86-.44H5.2v0.11Zm5.24,8H6.07V23.74h4.37a3.39,3.39,0,0,1,0,6.77m18.35,3.28H20.71l2.18-5.13a9.62,9.62,0,0,0,1.86.22,10.76,10.76,0,0,0,1.86-.22Zm-5.68-5.68,1.53-3.6,1.53,3.6a7.74,7.74,0,0,1-1.53.11c-0.44,0-1-.11-1.53-0.11m4.37-.33-2.18-5a0.37,0.37,0,0,0-.44-0.22H24.42a0.57,0.57,0,0,0-.44.22l-2.18,5a8.84,8.84,0,0,1-3.71-2.29,9.37,9.37,0,0,1,.11-12.89A9,9,0,0,1,24.64,10a9.47,9.47,0,0,1,6.44,2.62A9,9,0,0,1,33.7,19a9.47,9.47,0,0,1-2.62,6.44,8.48,8.48,0,0,1-3.6,2.29m25.67,0.33a0.23,0.23,0,0,0,.22.22h0.11a0.23,0.23,0,0,0,.22-0.22V10.19h5.46A0.23,0.23,0,0,0,59.37,10V9.87a0.23,0.23,0,0,0-.22-0.22H47.69a0.23,0.23,0,0,0-.22.22V10a0.23,0.23,0,0,0,.22.22h5.46V28.11ZM59.48,41H50.42V22.87a0.29,0.29,0,0,0-.33-0.33H49.54a0.29,0.29,0,0,0-.33.33v19a0.29,0.29,0,0,0,.33.33h9.94a0.29,0.29,0,0,0,.33-0.33V41.33A0.29,0.29,0,0,0,59.48,41m-18-12.12a5.6,5.6,0,0,0,5.68-5.68,4,4,0,0,0-1.64-3.39,12.44,12.44,0,0,0-3.39-1.75l-1.64-.66c-1.64-.76-2.84-1.75-2.84-3.6a3.81,3.81,0,0,1,1.09-2.62A3.76,3.76,0,0,1,45.17,13a0.23,0.23,0,0,0,.22.22H45.5a0.27,0.27,0,0,0,.22-0.33,4.47,4.47,0,0,0-8.85.87,4,4,0,0,0,1.64,3.28,13.13,13.13,0,0,0,3.28,1.64,8.46,8.46,0,0,1,1.75.76c1.42,0.66,2.84,1.64,2.84,3.82a4.94,4.94,0,0,1-5,5,5.2,5.2,0,0,1-4.59-2.95V23a0.29,0.29,0,0,0-.33-0.33H35.89a0.29,0.29,0,0,0-.33.33V42a0.29,0.29,0,0,0,.33.33h9.94A0.29,0.29,0,0,0,46.16,42V41.43a0.29,0.29,0,0,0-.33-0.33H36.76V26.58a6.12,6.12,0,0,0,4.7,2.29"/></svg>