<?xml version="1.0" encoding="utf-8"?>
<!-- Generator: Adobe Illustrator 21.0.0, SVG Export Plug-In . SVG Version: 6.00 Build 0)  -->
<!DOCTYPE svg PUBLIC "-//W3C//DTD SVG 1.1//EN" "http://www.w3.org/Graphics/SVG/1.1/DTD/svg11.dtd">
<svg version="1.1" id="Layer_1" xmlns="http://www.w3.org/2000/svg" xmlns:xlink="http://www.w3.org/1999/xlink" x="0px" y="0px"
	 viewBox="0 0 93.4 17.9" style="enable-background:new 0 0 93.4 17.9;" xml:space="preserve">
<style type="text/css">
	.st0{fill:#FFFFFF;}
</style>
<g>
	<polygon class="st0" points="2.7,0.6 4.6,0.6 4.6,3.3 7.3,3.3 7.3,0.6 9.2,0.6 9.2,8.1 7.3,8.1 7.3,4.9 4.6,4.9 4.6,8.1 2.7,8.1 	
		"/>
	<path class="st0" d="M14,0.6h1.9L18.7,8h-2l-0.4-1.2h-2.7L13.2,8h-2L14,0.6z M15.9,5.5l-0.9-3l0,0l-0.9,3.1h1.8V5.5z"/>
	<g>
		<path class="st0" d="M20.8,0.6h3.7c1.7,0,2.7,0.8,2.7,2.4c0,1-0.6,1.7-1.5,2l1.7,3h-2.1l-1.5-2.7h-1.2V8h-1.9L20.8,0.6L20.8,0.6z
			 M22.7,4h1.7c0.6,0,1-0.3,1-1s-0.4-1-1-1h-1.7V4z"/>
		<polygon class="st0" points="29,0.6 31,0.6 32.5,5.9 32.5,5.9 34.1,0.6 36,0.6 33.4,8.1 31.5,8.1 		"/>
		<path class="st0" d="M39.7,0.6h1.9L44.4,8h-2L42,6.8h-2.7L39,8.1h-2L39.7,0.6z M41.6,5.5l-0.9-3.1l0,0l-0.9,3.1H41.6z"/>
		<path class="st0" d="M46.5,0.6h3.7c1.7,0,2.7,0.8,2.7,2.4c0,1-0.6,1.7-1.5,2l1.7,3H51l-1.5-2.7h-1.2V8h-1.9V0.6H46.5z M48.4,4h1.7
			c0.6,0,1-0.3,1-1s-0.4-1-1-1h-1.7V4z"/>
		<path class="st0" d="M55.3,0.6h2.9c2.3,0,3.8,1.1,3.8,3.7S60.5,8,58.2,8h-2.9V0.6z M57.2,6.5h1.1c1.4,0,1.9-0.9,1.9-2.1
			s-0.5-2.1-1.9-2.1h-1.1V6.5z"/>
		<path class="st0" d="M2.7,11.7h2.6c1.1,0,1.8,0.4,1.8,1.4c0,0.7-0.4,1-1.1,1.2l0,0c0.7,0.1,1.3,0.4,1.3,1.2c0,1.1-0.8,1.5-2.2,1.5
			H2.7V11.7z M4,13.8h1.1c0.4,0,0.7-0.2,0.7-0.6c0-0.4-0.3-0.6-0.7-0.6H4V13.8z M4,16h1.1C5.8,16,6,15.7,6,15.4
			c0-0.4-0.2-0.6-0.7-0.6H4V16z"/>
		<path class="st0" d="M13.6,15.1c0,1.5-1,2-2.1,2c-1,0-2.3-0.5-2.3-2v-3.5h1.3V15c0,0.6,0.2,1,0.9,1s0.9-0.4,0.9-1v-3.4h1.3V15.1
			L13.6,15.1z"/>
		<path class="st0" d="M16.5,15.4c0.5,0.4,0.9,0.7,1.5,0.7c0.4,0,1-0.1,1-0.6c0-0.3-0.2-0.4-0.6-0.5l-1.1-0.2
			c-1-0.2-1.5-0.7-1.5-1.5c0-1.3,1-1.8,2.2-1.8c0.9,0,1.8,0.4,2.4,1l-1,0.7c-0.4-0.4-0.9-0.7-1.4-0.7c-0.3,0-0.8,0.2-0.8,0.5
			s0.2,0.4,0.7,0.5l0.5,0.1c1.1,0.2,1.9,0.5,1.9,1.5c0,1.6-1.4,1.9-2.4,1.9c-0.9,0-1.7-0.3-2.4-1.1L16.5,15.4z"/>
		<rect x="22.3" y="11.7" class="st0" width="1.3" height="5.3"/>
		<polygon class="st0" points="25.8,11.7 27.2,11.7 29.1,15.1 29.1,15.1 29.1,11.7 30.3,11.7 30.3,17 29,17 27,13.7 27,13.7 27,17 
			25.8,17 		"/>
		<polygon class="st0" points="32.5,17 32.5,11.7 36.4,11.7 36.4,12.7 33.8,12.7 33.8,13.7 36.3,13.7 36.3,14.7 33.8,14.7 33.8,16 
			36.6,16 36.6,17 		"/>
		<path class="st0" d="M39,15.4c0.5,0.4,0.9,0.7,1.5,0.7c0.4,0,1-0.1,1-0.6c0-0.3-0.2-0.4-0.6-0.5l-1.1-0.2c-1-0.2-1.5-0.7-1.5-1.5
			c0-1.3,1-1.8,2.2-1.8c0.9,0,1.8,0.4,2.4,1l-1,0.7c-0.4-0.4-0.9-0.7-1.4-0.7c-0.3,0-0.8,0.2-0.8,0.5s0.2,0.4,0.7,0.5l0.5,0.1
			c1.1,0.2,1.9,0.5,1.9,1.5c0,1.6-1.4,1.9-2.4,1.9c-0.9,0-1.7-0.3-2.4-1.1L39,15.4z"/>
		<path class="st0" d="M45.3,15.4c0.5,0.4,0.9,0.7,1.5,0.7c0.4,0,1-0.1,1-0.6c0-0.3-0.2-0.4-0.6-0.5l-1.1-0.2
			c-1-0.2-1.5-0.7-1.5-1.5c0-1.3,1-1.8,2.2-1.8c0.9,0,1.8,0.4,2.4,1l-1,0.7c-0.4-0.4-0.9-0.7-1.4-0.7c-0.3,0-0.8,0.2-0.8,0.5
			s0.2,0.4,0.7,0.5l0.5,0.1c1.1,0.2,1.9,0.5,1.9,1.5c0,1.6-1.4,1.9-2.4,1.9c-0.9,0-1.7-0.3-2.4-1.1L45.3,15.4z"/>
		<path class="st0" d="M54,15.4c0.5,0.4,0.9,0.7,1.5,0.7c0.4,0,1-0.1,1-0.6c0-0.3-0.2-0.4-0.6-0.5l-1.1-0.2c-1-0.2-1.5-0.7-1.5-1.5
			c0-1.3,1-1.8,2.2-1.8c0.9,0,1.8,0.4,2.4,1l-1,0.7c-0.4-0.4-0.9-0.7-1.4-0.7c-0.3,0-0.8,0.2-0.8,0.5s0.2,0.4,0.7,0.5l0.5,0.1
			c1.1,0.2,1.9,0.5,1.9,1.5c0,1.6-1.4,1.9-2.4,1.9c-0.9,0-1.7-0.3-2.4-1.1L54,15.4z"/>
		<path class="st0" d="M63.3,13.4c-0.2-0.5-0.6-0.8-1.1-0.8c-0.7,0-1.3,0.5-1.3,1.7c0,0.8,0.3,1.7,1.4,1.7c0.4,0,0.9-0.3,1.1-0.8
			l1.1,0.5c-0.5,0.8-1.3,1.4-2.2,1.4c-1.7,0-2.7-1.3-2.7-2.8s0.9-2.8,2.6-2.8c1,0,1.7,0.5,2.2,1.4L63.3,13.4z"/>
		<polygon class="st0" points="66.2,11.7 67.5,11.7 67.5,13.6 69.5,13.6 69.5,11.7 70.9,11.7 70.9,17 69.5,17 69.5,14.8 67.5,14.8 
			67.5,17 66.2,17 		"/>
		<path class="st0" d="M75.5,17.2c-1.7,0-2.7-1.3-2.7-2.8s1-2.8,2.7-2.8s2.7,1.3,2.7,2.8C78.2,15.8,77.2,17.2,75.5,17.2 M75.5,12.6
			c-0.8,0-1.4,0.5-1.4,1.7c0,0.8,0.3,1.7,1.4,1.7c1,0,1.4-0.9,1.4-1.7S76.5,12.6,75.5,12.6"/>
		<path class="st0" d="M82.6,17.2c-1.7,0-2.7-1.3-2.7-2.8s1-2.8,2.7-2.8s2.7,1.3,2.7,2.8C85.3,15.8,84.3,17.2,82.6,17.2 M82.6,12.6
			c-0.8,0-1.4,0.5-1.4,1.7c0,0.8,0.3,1.7,1.4,1.7c1,0,1.4-0.9,1.4-1.7S83.6,12.6,82.6,12.6"/>
		<polygon class="st0" points="87.2,11.7 88.6,11.7 88.6,15.9 90.7,15.9 90.7,17 87.2,17 		"/>
	</g>
</g>
</svg>
