<?xml version="1.0" encoding="utf-8"?>
<!-- Generator: Adobe Illustrator 20.1.0, SVG Export Plug-In . SVG Version: 6.00 Build 0)  -->
<!DOCTYPE svg PUBLIC "-//W3C//DTD SVG 1.1//EN" "http://www.w3.org/Graphics/SVG/1.1/DTD/svg11.dtd">
<svg version="1.1" id="Layer_1" xmlns="http://www.w3.org/2000/svg" xmlns:xlink="http://www.w3.org/1999/xlink" x="0px" y="0px"
	 viewBox="0 0 106.2 27.3" style="enable-background:new 0 0 106.2 27.3;" xml:space="preserve">
<style type="text/css">
	.st0{fill:#FFFFFF;}
</style>
<title>Untitled-2</title>
<path class="st0" d="M53.4,14.2v8.4H51V4.8h11.4v2.1h-9v5.3h8.4v2.1H53.4z"/>
<path class="st0" d="M66.2,4.8v2.1h-1.9V4.8H66.2z M66.2,10.7v11.9h-1.9V10.7L66.2,10.7z"/>
<path class="st0" d="M70.7,4.8v17.8h-1.9V4.8H70.7z"/>
<path class="st0" d="M75.3,10.7v1.6c1.4-1.7,2.7-2,3.6-2c1.4,0,2.7,0.9,3.2,2.2c1-1,2.2-2.2,3.9-2.2c1.4,0,2.7,0.8,3.2,2.1
	c0.3,0.9,0.4,1.8,0.3,2.7v7.4h-2v-6.9c0-0.6,0-1.3-0.1-1.9c-0.2-0.9-1.1-1.5-2.1-1.5c-0.9,0-1.7,0.4-2.3,1c-0.7,0.7-0.7,1.2-0.7,2.7
	v6.6h-2v-7.6c0.1-0.7,0-1.3-0.4-1.9c-0.4-0.5-1.1-0.8-1.7-0.8c-0.8,0-1.6,0.3-2.2,0.9c-0.7,0.6-0.9,1.5-0.8,2.4v7h-2V10.7H75.3z"/>
<path class="st0" d="M96,17.3c-1.9-0.5-4.2-1-4.2-3.4c0-2.2,1.8-3.5,4.6-3.5c2.3,0,4.7,1.1,5.1,3.9l-2.2,0.3
	c0.1-0.7-0.3-1.5-0.9-1.9c-0.7-0.5-1.5-0.7-2.3-0.7c-1.6,0-2.3,0.9-2.3,1.7c0,1.1,1.3,1.5,2.8,1.9l1.1,0.3c1.4,0.3,3.9,0.9,3.9,3.4
	c0,1.9-1.7,3.8-5,3.8C95.4,23,94.1,22.7,93,22c-1-0.8-1.7-1.9-1.8-3.2l2.3-0.4c-0.1,0.9,0.2,1.7,0.9,2.3c0.7,0.5,1.5,0.8,2.4,0.7
	c1.8,0,2.8-0.7,2.8-2s-1-1.6-2.5-1.9L96,17.3z"/>
<polygon class="st0" points="28.5,4.8 28.5,8.7 20,8.7 20,11.9 27.9,11.9 27.9,15.7 20,15.7 20,22.5 14.4,22.5 14.4,4.8 28.5,4.8 
	"/>
<path class="st0" d="M48,17.9c-0.4,0.9-1,1.8-1.7,2.5c-1.9,1.7-4.3,2.7-6.9,2.6c-6.3,0-9.2-4.8-9.2-9.3c0-4.8,3.2-9.6,9.2-9.6
	c2.7,0,5.3,1,7.1,2.9c0.6,0.6,1.1,1.3,1.5,2.1l-4.7,2.3c-0.5-1.1-1.3-2.9-3.7-2.9c-0.9,0-1.8,0.4-2.4,1c-1,1.1-1.4,2.5-1.3,4
	c0,2.6,1,5.1,3.8,5.1c1.7,0,3.2-1.2,3.6-2.9L48,17.9z"/>
<path class="st0" d="M11.8,9.2h-3c-0.5,0-0.9-0.4-0.9-0.9l0,0V6.9C7.9,6.4,8.3,6,8.8,6c0,0,0,0,0,0h3c0.1,0,0.3,0,0.4,0.1V4.7H4.8
	v17.8h7.5V9.2C12.1,9.2,12,9.2,11.8,9.2L11.8,9.2z"/>
</svg>
