<?xml version="1.0" encoding="utf-8"?>
<!-- Generator: Adobe Illustrator 20.1.0, SVG Export Plug-In . SVG Version: 6.00 Build 0)  -->
<!DOCTYPE svg PUBLIC "-//W3C//DTD SVG 1.1//EN" "http://www.w3.org/Graphics/SVG/1.1/DTD/svg11.dtd">
<svg version="1.1" id="Layer_1" xmlns="http://www.w3.org/2000/svg" xmlns:xlink="http://www.w3.org/1999/xlink" x="0px" y="0px"
	 viewBox="0 0 81.8 29.1" style="enable-background:new 0 0 81.8 29.1;" xml:space="preserve">
<style type="text/css">
	.st0{fill:#FFFFFF;}
</style>
<title>Untitled-2</title>
<path class="st0" d="M55.4,6.2c-5.6,0-8.7,3.7-8.7,9.1s3,9.2,8.7,9.2s8.7-3.9,8.7-9.2S61,6.2,55.4,6.2z M55.4,21.5
	c-3.5,0-4.8-3.1-4.8-6.2s1.4-6.1,4.8-6.1s4.8,3.1,4.8,6.1S58.9,21.5,55.4,21.5z"/>
<path class="st0" d="M25.6,6.5v12.7c0,2.6,0.3,5.1,4.1,5.1V11.1C29.7,8.6,29.4,6.5,25.6,6.5z"/>
<path class="st0" d="M46.9,7.1h-4.8l-5.8,6.7v-2.8c0-2.8-0.8-4.6-4.1-4.6V19c0,2.7,0.3,5.2,4.1,5.2v-7.9l5,6.1
	c1.3,1.5,1.8,1.8,3.8,1.8c0.7,0,0.9,0,3,0L40,15L46.9,7.1z"/>
<path class="st0" d="M14,4.8c-6,0-9.3,3.9-9.3,9.7s3.2,9.8,9.3,9.8s9.2-4.1,9.2-9.8S19.9,4.8,14,4.8z M14,21.1
	c-3.7,0-5.1-3.3-5.1-6.6s1.5-6.5,5.1-6.5s5.1,3.3,5.1,6.4S17.7,21.1,14,21.1L14,21.1z"/>
<path class="st0" d="M72.8,14c-0.8-0.2-1.2-0.4-2-0.6c-1-0.3-1.8-0.9-1.8-1.9c-0.2-2.3,2.5-2.4,3.8-1.9c3.3,1.2,4-1.7,4-1.7
	c-1.7-1.3-3.9-1.9-6-1.6c-3,0.2-5.5,2.5-5.3,5.5c0.2,2.4,1.3,4.1,4.4,5.1c0.7,0.2,1.3,0.4,1.8,0.5c1.1,0.2,1.9,1,2.1,2.1
	c0.1,1.4-1.6,2.7-4.6,1.6c-3.8-1.3-5.1,1.4-5.1,1.4c2.1,1.6,4.8,2.4,7.5,2.1c3.1-0.2,5.9-2.6,5.7-5.7C77.1,16.3,75.4,14.8,72.8,14z"
	/>
<path class="st0" d="M80.2,7.4c0-0.3-0.2-0.4-0.5-0.4h-0.6v1.4h0.2V7.8h0.2L80,8.4h0.3l-0.4-0.6C80.1,7.8,80.3,7.6,80.2,7.4
	C80.3,7.4,80.3,7.4,80.2,7.4z M79.4,7.6V7.2h0.3c0.1,0,0.3,0,0.3,0.2s-0.2,0.2-0.3,0.2H79.4z"/>
<path class="st0" d="M79.7,6.5c-0.7,0-1.3,0.6-1.3,1.3C78.4,8.4,79,9,79.7,9C80.4,9,81,8.4,81,7.7C81,7,80.4,6.5,79.7,6.5L79.7,6.5z
	 M79.7,8.7c-0.6,0-1-0.4-1-1s0.4-1,1-1s1,0.4,1,1S80.2,8.7,79.7,8.7z"/>
</svg>
