<?xml version="1.0" encoding="utf-8"?>
<!-- Generator: Adobe Illustrator 20.1.0, SVG Export Plug-In . SVG Version: 6.00 Build 0)  -->
<!DOCTYPE svg PUBLIC "-//W3C//DTD SVG 1.1//EN" "http://www.w3.org/Graphics/SVG/1.1/DTD/svg11.dtd">
<svg version="1.1" id="Layer_1" xmlns="http://www.w3.org/2000/svg" xmlns:xlink="http://www.w3.org/1999/xlink" x="0px" y="0px"
	 viewBox="0 0 90.1 40.3" style="enable-background:new 0 0 90.1 40.3;" xml:space="preserve">
<style type="text/css">
	.st0{fill:#FFFFFF;}
</style>
<title>Untitled-2</title>
<path id="_Path_" class="st0" d="M33.3,7.8c-0.2-0.2-0.5-0.3-0.8-0.4c-0.4-0.2-0.8-0.4-1.1-0.6c-0.2-0.2-0.3-0.5-0.1-0.7
	c0.1-0.2,0.3-0.3,0.5-0.3c0,0,0.5,0,0.5,0.4v0.6H34V5.9c0,0,0.1-1.4-2.1-1.4c0,0-1.7-0.1-2.2,0.8c0,0-0.2,0.2-0.2,0.9v0.5
	c0,0.4,0.1,0.7,0.3,1C30,8,30.2,8.1,30.4,8.3L31.8,9c0,0,0.5,0.3,0.5,0.8c0,0.3-0.3,0.5-0.5,0.5c-0.3,0-0.5-0.2-0.5-0.5c0,0,0,0,0,0
	V9.2h-1.9V10c0,0,0,1.6,2.4,1.6c0,0,2.3,0,2.4-1.6V9.3C34.1,8.7,33.8,8.1,33.3,7.8z"/>
<polygon id="_Path_2" class="st0" points="24.3,4.7 23.7,8.4 23.6,8.4 23,4.7 20.1,4.7 19.9,11.4 21.7,11.4 21.7,6.4 21.8,6.4 
	22.8,11.4 24.6,11.4 25.5,6.4 25.6,6.4 25.7,11.4 27.4,11.4 27.2,4.7 24.3,4.7 "/>
<polygon id="_Path_3" class="st0" points="14,4.7 12.8,11.4 14.7,11.4 15.4,6.2 15.5,6.2 16.2,11.4 18.1,11.4 16.9,4.7 14,4.7 "/>
<path id="_Path_4" class="st0" d="M53.2,7.7v1h0.5v1c0,0.3-0.2,0.5-0.5,0.5s-0.5-0.2-0.5-0.5V6.1c0-0.4,0.5-0.4,0.5-0.4
	c0.2,0,0.5,0.2,0.5,0.4c0,0,0,0,0,0v0.6h1.8c0.1-1.1-0.2-1.3-0.2-1.3c-0.4-1-2.1-0.9-2.1-0.9c-2.5,0-2.3,2-2.3,2v3.5
	c0,1.8,2.6,1.6,2.6,1.6c0.5,0,1.1-0.2,1.5-0.5c0.2-0.1,0.3-0.3,0.4-0.6c0.1-0.3,0.1-0.5,0.1-0.8V7.7H53.2z"/>
<polygon id="_Path_5" class="st0" points="47.4,8.8 47.3,8.8 45.5,4.7 43.4,4.7 43.4,11.4 45.1,11.4 45,7.3 45.1,7.3 47,11.4 
	49,11.4 49,4.7 47.3,4.7 47.4,8.8 "/>
<path id="_Path_6" class="st0" d="M39.1,9.7c0,0,0,0.6-0.5,0.6c-0.3,0-0.5-0.2-0.5-0.5c0,0,0-0.1,0-0.1v-5h-1.9v5
	c0,0-0.2,1.9,2.5,1.9c0,0,2.3,0,2.3-1.8V4.7h-1.9V9.7L39.1,9.7z"/>
<path id="_Path_7" class="st0" d="M10.3,7.8c-0.2-0.2-0.5-0.3-0.8-0.4C9.2,7.2,8.8,7,8.4,6.7C8.2,6.5,8.2,6.2,8.3,6
	c0.1-0.2,0.3-0.3,0.5-0.3c0,0,0.5,0,0.5,0.4v0.6H11V5.9c0,0,0.1-1.4-2.1-1.4c-0.1,0-0.3,0-0.4,0c0,0-1.3,0.1-1.8,0.8l0,0
	c0,0-0.2,0.2-0.2,0.9v0.5c0,0.4,0.1,0.7,0.3,1C7,7.9,7.2,8.1,7.4,8.3L8.8,9c0,0,0.5,0.3,0.5,0.8c0,0.3-0.3,0.5-0.6,0.5
	c-0.3,0-0.5-0.2-0.5-0.5c0,0,0,0,0,0V9.2H6.4V10c0,0-0.1,1.6,2.3,1.6c0,0,2.3,0,2.4-1.6V9.3C11.2,8.7,10.8,8.1,10.3,7.8L10.3,7.8z"
	/>
<path id="_Path_8" class="st0" d="M64.8,24c-0.2-0.2-0.3-0.4-0.4-0.6c-0.8-1.1-1.5-2.1-2.3-3.2c-0.1-0.2-0.3-0.4-0.5-0.4
	c-1.1,0-2.3,0-3.5,0l4.8,6.5l-5,6.7c1.2,0,2.2,0,3.2,0c0.4,0,0.7-0.1,0.9-0.5c0.7-1,1.4-1.9,2.1-2.9l0.7-1c1,1.4,1.9,2.6,2.8,3.9
	c0.1,0.2,0.3,0.4,0.5,0.4c1.2,0,2.3,0,3.6,0c-0.2-0.3-0.3-0.4-0.3-0.5c-1.4-1.9-2.8-3.8-4.3-5.6c-0.3-0.3-0.3-0.8-0.1-1.1
	c0,0,0,0,0.1-0.1c1.3-1.7,2.6-3.5,3.8-5.2c0.1-0.2,0.3-0.4,0.5-0.7c-1.1,0-2.1,0-3.1,0c-0.4,0-0.7,0.2-0.9,0.5
	C66.5,21.5,65.7,22.7,64.8,24z"/>
<path id="_Path_9" class="st0" d="M41.6,33.1V16.4h-3v16.6H41.6z"/>
<path id="_Path_10" class="st0" d="M21.2,23.9h-8.5v3h5.1c-0.4,2-2.1,3.4-4.5,3.5C10.9,30.5,8.7,29,8,26.6c-0.8-2.4,0.1-5,2.2-6.4
	c1.1-0.7,2.3-1,3.6-0.8c1.8,0.2,3.3,1.3,4.1,2.8l0.6-0.3l0,0l2.2-1.3l-0.1-0.3v-0.1l-0.1-0.1c-2.5-4-7.8-5.2-11.8-2.6
	s-5.2,7.8-2.6,11.8c1.6,2.5,4.3,4,7.3,4c1.4,0,2.9-0.4,4.1-1.1l0,0c0.6-0.4,1.2-0.9,1.7-1.4C20.8,29,21.6,26.4,21.2,23.9z"/>
<path id="_Path_11" class="st0" d="M74.8,37.9c0.7-1.6,1.3-3.2,2-4.9c0.2-0.4,0.2-0.9,0-1.3c-1.6-3.7-3.2-7.4-4.8-11.2
	c-0.1-0.2-0.2-0.5-0.3-0.8c1,0,2,0,2.9,0c0.2,0,0.4,0.3,0.6,0.5c1.1,2.6,2.1,5.1,3.2,7.7l0.2,0.5c0.4-1,0.8-1.9,1.1-2.8
	c0.7-1.8,1.4-3.6,2.1-5.4c0.1-0.4,0.5-0.7,0.9-0.6c0.8,0,1.6,0,2.6,0L78,37.9H74.8z"/>
<path id="_Path_12" class="st0" d="M64.8,24c0.9-1.2,1.8-2.5,2.6-3.7c0.2-0.3,0.5-0.5,0.9-0.5c1,0,2,0,3.1,0
	c-0.2,0.3-0.3,0.5-0.5,0.7c-1.3,1.8-2.5,3.5-3.8,5.2c-0.3,0.3-0.3,0.8-0.1,1.1c0,0,0,0,0.1,0.1c1.4,1.9,2.8,3.7,4.3,5.6
	c0.1,0.1,0.2,0.3,0.3,0.5c-1.3,0-2.4,0-3.6,0c-0.2,0-0.3-0.3-0.5-0.4c-0.9-1.3-1.9-2.5-2.8-3.9l-0.7,1c-0.7,1-1.4,1.9-2.1,2.9
	c-0.2,0.3-0.5,0.5-0.9,0.5c-1,0-2,0-3.2,0l5-6.7L58,19.9c1.3,0,2.4,0,3.5,0c0.2,0,0.4,0.2,0.5,0.4c0.8,1,1.5,2.1,2.3,3.2
	C64.5,23.6,64.6,23.8,64.8,24z"/>
<path id="_Path_13" class="st0" d="M41.6,33.1h-3V16.4h3V33.1z"/>
<path class="st0" d="M53.9,21.3l0.1-1.4h3V33h-3l-0.1-1.4c-3.3,2.4-6.7,2.3-9.1-0.5c-2.3-2.8-2.2-6.8,0-9.5
	C47.3,19,51.3,18.9,53.9,21.3z M46.2,26.5c0,2.2,1.7,4,3.9,4.1c0,0,0.1,0,0.1,0c2.2-0.1,4-2,3.9-4.3c-0.1-2.1-1.8-3.8-3.9-3.9
	c-2.2,0-4,1.7-4,3.9C46.2,26.3,46.2,26.4,46.2,26.5z"/>
<path class="st0" d="M33.3,21.3v-1.4h3V33h-3v-1.5c-1.4,1.6-3.6,2.3-5.6,1.8c-1.5-0.3-2.9-1.2-3.8-2.5c-2-2.9-1.8-6.7,0.6-9.3
	C27,19.1,30.8,19,33.3,21.3z M33.5,26.5c0.1-2.2-1.6-4-3.8-4.1c0,0-0.1,0-0.1,0c-2.2,0-4,1.8-4,4c0,2.2,1.7,4,3.9,4.1
	c0,0,0.1,0,0.1,0C31.8,30.4,33.5,28.6,33.5,26.5z"/>
</svg>
